<?xml version="1.0"?><svg width="640" height="480" xmlns="http://www.w3.org/2000/svg">
 <!-- Credit: http://www.clker.com/clipart-two-black-borders.html -->
 <metadata id="metadata3">celtic-vine-cornerorner border ornament, a vine in the form of a Celtic knotcelticornamentaldecorationdecorativebordercornershapeflourishOpen Clip Art LibrarySteve DoonanSteve Doonanimage/svg+xmlen</metadata>
 <g>
  <title>Layer 1</title>
  <g id="layer2" display="inline">
   <path d="m32.129356,26.045822l5.879498,-1.426941c8.680412,-12.123032 33.634518,-18.412628 53.157063,3.431885l3.838875,-2.131348c-16.494431,-19.751465 -46.814816,-23.47908 -62.875435,0.126404zm-4.121914,22.467865l-0.69228,-4.385971c-28.119862,-11.685425 -8.828911,-39.570221 8.783337,-28.359283l3.343994,-2.753418c-23.856821,-16.65062 -50.026983,21.648148 -11.435051,35.498672zm73.285061,-16.308609l-2.911804,1.8965c45.084709,38.704742 68.940529,-38.259109 114.28875,-6.990051c-44.873428,-36.080719 -69.163681,39.553635 -111.376945,5.093552zm-31.845726,9.283981l0.608353,3.752151c22.959,-3.224213 49.79425,-41.373596 81.623978,-16.822845l2.70047,-2.297165c-33.701035,-28.322113 -64.784691,12.133881 -84.9328,15.367859l0,0l0,0zm-22.924641,-22.324982l-2.874878,2.510681c5.933029,6.00383 6.061771,12.155746 6.914875,21.91803l4.269226,-0.76712c-0.526031,-8.750031 -1.486694,-17.223221 -8.309223,-23.661575l0,-0.000015zm7.207783,7.772079l0.950348,3.623672c8.079887,2.599045 10.708817,9.481369 8.608704,22.200027l3.729721,-0.202377c2.204323,-13.351532 0.33831,-22.732803 -13.288773,-25.621323zm-23.620594,9.976776c-1.97908,7.309113 -0.811104,23.796783 17.859505,23.884644l0.686226,-3.756958c-15.187256,-0.588043 -16.08062,-13.471069 -13.112976,-22.487457l-5.432755,2.359772zm-15.67424,6.111389c-21.937977,40.424561 61.184856,51.593689 17.47414,113.051514l1.332977,3.630371c49.047081,-63.276764 -33.832403,-79.152481 -15.171768,-113.791931l-3.635349,-2.889938l0,-0.000015zm46.510342,0.272537c-7.095322,2.525818 -16.232441,3.240433 -23.748329,3.026474l0.70919,3.277252c5.659908,0.737122 18.520683,-0.927429 23.416664,-2.67482l-0.377525,-3.628906zm-9.990486,8.018005c-0.108559,12.128113 0.679398,24.029999 -14.652443,36.75679l2.281361,3.088806c15.464001,-11.917038 16.320339,-22.880966 16.210407,-40.46022l-3.839325,0.614624zm5.619881,5.057434l0.253082,3.986984c25.860229,-6.954163 27.269241,6.962479 22.764442,11.708939c-4.505386,4.747055 -14.834831,1.053116 -13.428543,-11.035873l-3.603127,0.213577c-2.285446,14.545731 12.233086,21.735367 20.314415,13.944611c8.037979,-7.74855 2.060089,-26.967163 -26.30027,-18.818237zm-26.671139,36.864883c-32.960484,31.419617 9.254631,75.665436 8.967602,100.567047c-0.28529,24.749023 -17.228531,34.665039 -17.719486,56.075592c-0.492023,21.459686 14.140411,38.20929 13.526711,44.923248c-0.613689,6.713959 -9.513531,7.50119 -9.355595,-1.390656c-1.984303,11.261597 11.05294,10.501556 10.814102,0.538696c-0.23859,-9.953613 -12.765411,-22.265961 -12.379562,-43.441254c0.392788,-21.557404 17.146336,-28.007202 18.081421,-56.705627c0.935032,-28.698425 -40.449039,-67.071869 -9.041805,-98.074188l-2.893387,-2.492859zm15.599331,-66.377777c-10.412663,0.028549 -20.111786,4.377472 -25.271351,10.037048l3.514282,2.750259c4.273254,-4.068649 11.581345,-9.328613 23.147133,-8.940826l-1.390064,-3.846481l0,0zm274.490852,8.910385c-9.70282,-0.530548 -24.144867,-12.706924 -57.590698,-12.444107c-33.446442,0.262817 -72.813187,30.5961 -100.275192,8.861298l-2.169937,2.546799c29.461578,24.097809 69.761383,-8.356018 102.445129,-8.572296c32.683167,-0.216354 45.325043,10.431992 57.257141,11.288116c11.931488,0.85611 14.344696,-12.825989 -1.067749,-11.319977c13.323242,0.795441 11.104095,10.170746 1.401306,9.640167zm-293.734962,126.47554c0,0 -7.993248,13.023834 -8.727842,20.423309c-0.735781,7.410461 -1.197357,14.376404 5.120691,20.692108c-3.760883,-6.631866 -3.982796,-9.227631 -3.28904,-18.219452c0.693768,-8.991241 8.706001,-19.361542 8.706001,-19.361542l-1.809811,-3.534424z" id="path7339" stroke-miterlimit="4" fill-rule="evenodd" fill="#000000"/>
  </g>
  <g transform="rotate(-180 479 331)" id="svg_1" display="inline">
   <path id="svg_2" d="m349.419098,209.19342l5.879486,-1.426941c8.68042,-12.123032 33.634521,-18.412628 53.157043,3.431885l3.838928,-2.131348c-16.494446,-19.75148 -46.81485,-23.47908 -62.875458,0.126404zm-4.121918,22.467865l-0.692291,-4.385971c-28.119843,-11.685425 -8.828918,-39.570206 8.783356,-28.359283l3.343964,-2.753418c-23.856812,-16.65062 -50.026978,21.648148 -11.435028,35.498672zm73.285034,-16.308609l-2.911804,1.8965c45.084717,38.704742 68.940552,-38.259109 114.288757,-6.990051c-44.873413,-36.080719 -69.163635,39.553619 -111.376953,5.093552zm-31.845703,9.283981l0.608368,3.752151c22.959015,-3.224213 49.79422,-41.373611 81.623993,-16.822845l2.700439,-2.297165c-33.70105,-28.322113 -64.784698,12.133881 -84.9328,15.367859l0,0l0,0zm-22.924652,-22.324982l-2.874878,2.510681c5.933044,6.00383 6.061798,12.155746 6.914886,21.91803l4.269226,-0.76712c-0.526031,-8.750031 -1.486694,-17.223221 -8.309235,-23.661575l0,-0.000015zm7.207794,7.772079l0.950348,3.623672c8.079865,2.599045 10.708801,9.481369 8.608704,22.200027l3.729706,-0.202377c2.204315,-13.351532 0.338318,-22.732803 -13.288757,-25.621323zm-23.620605,9.976776c-1.979065,7.309113 -0.811096,23.796783 17.859528,23.884644l0.686218,-3.756958c-15.187256,-0.588043 -16.080627,-13.471069 -13.112976,-22.487457l-5.43277,2.359772zm-15.674225,6.111389c-21.937988,40.424576 61.184845,51.593704 17.474152,113.051529l1.332947,3.630371c49.047089,-63.276794 -33.832397,-79.152496 -15.171753,-113.791946l-3.635345,-2.889938l0,-0.000015zm46.510345,0.272537c-7.095337,2.525818 -16.232452,3.240433 -23.748322,3.026474l0.709167,3.277252c5.659912,0.737122 18.520691,-0.927429 23.416656,-2.67482l-0.377502,-3.628906zm-9.990509,8.018005c-0.108551,12.128113 0.679413,24.029999 -14.652435,36.756805l2.281372,3.088776c15.463989,-11.917023 16.320343,-22.880951 16.210419,-40.460205l-3.839355,0.614624zm5.619904,5.057434l0.253082,3.986984c25.860229,-6.954163 27.269257,6.962479 22.764435,11.708939c-4.505371,4.74707 -14.834839,1.053101 -13.428528,-11.035873l-3.603149,0.213577c-2.285431,14.545746 12.233093,21.735382 20.314423,13.944611c8.037994,-7.748535 2.060089,-26.967163 -26.300262,-18.818237zm-26.671143,36.864899c-32.96048,31.419586 9.254639,75.665436 8.96759,100.567047c-0.285278,24.749023 -17.228516,34.665039 -17.719482,56.075562c-0.492035,21.459717 14.140411,38.20929 13.526703,44.923279c-0.613678,6.713928 -9.513519,7.50119 -9.355591,-1.390686c-1.984283,11.261597 11.052948,10.501587 10.814117,0.538696c-0.238586,-9.953613 -12.765411,-22.26593 -12.379578,-43.441223c0.392792,-21.557434 17.146332,-28.007202 18.081421,-56.705627c0.935059,-28.698456 -40.449036,-67.071899 -9.041809,-98.074219l-2.893372,-2.492828zm15.599335,-66.377792c-10.412659,0.028549 -20.111786,4.377472 -25.271362,10.037048l3.514282,2.750259c4.273254,-4.068649 11.58136,-9.328613 23.147156,-8.940826l-1.390076,-3.846481l0,0zm274.490814,8.910385c-9.70282,-0.530548 -24.144836,-12.706924 -57.590698,-12.444107c-33.446411,0.262817 -72.813171,30.5961 -100.275146,8.861298l-2.169922,2.546799c29.461548,24.097809 69.761353,-8.356018 102.445068,-8.572296c32.683167,-0.216354 45.325073,10.431992 57.257202,11.288116c11.931458,0.85611 14.344666,-12.825989 -1.06781,-11.319977c13.323303,0.795441 11.104126,10.170746 1.401306,9.640167zm-293.734924,126.475555c0,0 -7.993256,13.023804 -8.727844,20.423279c-0.735779,7.410461 -1.197357,14.376404 5.120697,20.692139c-3.760895,-6.631897 -3.982788,-9.227661 -3.289063,-18.219482c0.693787,-8.991211 8.706024,-19.361511 8.706024,-19.361511l-1.809814,-3.534424z" stroke-miterlimit="4" fill-rule="evenodd" fill="#000000"/>
  </g>
 </g>
</svg>